# xmcd
#
# Track frame offsets:
#	150
#	17293
#	34247
#	54489
#	67055
#	88705
#	105447
#	118640
#	134884
#	155123
#	173070
#
# Disc length: 2526 seconds
#
# Revision: 1
# Processed by: cddbd v1.5.1PL2 Copyright (c) Steve Scherf et al.
# Submitted via: audiograbber 1.83.01
#
DISCID=9409dc0b
DTITLE=Slim Lightfoot - Standing On The Banks Of The Mighty Blues
DYEAR=2004
DGENRE=Blues
TTITLE0=Rag Mama
TTITLE1=I Just Want To Make Love To You
TTITLE2=Doin' The Do
TTITLE3=Marching My Way Back Home
TTITLE4=The Southern Rain
TTITLE5=Standing On Th Banks Of The Mighty Blues
TTITLE6=Dancehall Crazy
TTITLE7=Crossroads
TTITLE8=Welfare State Blues
TTITLE9=Rollin' 'n' Tumblin'
TTITLE10=Going Back To School
EXTD=
EXTT0=
EXTT1=
EXTT2=
EXTT3=
EXTT4=
EXTT5=
EXTT6=
EXTT7=
EXTT8=
EXTT9=
EXTT10=
PLAYORDER=
